<?xml version="1.0" encoding="UTF-8" standalone="no"?>
<svg
   xmlns:lucid="lucid"
   xmlns:dc="http://purl.org/dc/elements/1.1/"
   xmlns:cc="http://creativecommons.org/ns#"
   xmlns:rdf="http://www.w3.org/1999/02/22-rdf-syntax-ns#"
   xmlns:svg="http://www.w3.org/2000/svg"
   xmlns="http://www.w3.org/2000/svg"
   xmlns:sodipodi="http://sodipodi.sourceforge.net/DTD/sodipodi-0.dtd"
   xmlns:inkscape="http://www.inkscape.org/namespaces/inkscape"
   width="1160"
   height="640"
   id="svg8411"
   version="1.1"
   inkscape:version="0.91 r13725"
   sodipodi:docname="big sorter.svg"
   inkscape:export-filename="/home/dave/workspace/big-sorter/src/docs/big-sorter-annotated.png"
   inkscape:export-xdpi="51.136364"
   inkscape:export-ydpi="51.136364">
  <metadata
     id="metadata8491">
    <rdf:RDF>
      <cc:Work
         rdf:about="">
        <dc:format>image/svg+xml</dc:format>
        <dc:type
           rdf:resource="http://purl.org/dc/dcmitype/StillImage" />
      </cc:Work>
    </rdf:RDF>
  </metadata>
  <defs
     id="defs8489" />
  <sodipodi:namedview
     pagecolor="#ffffff"
     bordercolor="#666666"
     borderopacity="1"
     objecttolerance="10"
     gridtolerance="10"
     guidetolerance="10"
     inkscape:pageopacity="0"
     inkscape:pageshadow="2"
     inkscape:window-width="1871"
     inkscape:window-height="1056"
     id="namedview8487"
     showgrid="false"
     inkscape:zoom="0.72661317"
     inkscape:cx="661.57239"
     inkscape:cy="157.88087"
     inkscape:window-x="49"
     inkscape:window-y="24"
     inkscape:window-maximized="1"
     inkscape:current-layer="svg8411" />
  <g
     lucid:page-tab-id="0_0"
     id="g8413"
     transform="matrix(0.72373843,0,0,0.72373843,153.14004,107.06897)">
    <path
       d="m -60,-120 1360,0 0,1760 -1360,0 z"
       id="path8415"
       inkscape:connector-curvature="0"
       style="fill:#ffffff" />
    <path
       d="m 20,100 180,0 0,400 -180,0 z m 360,-80 160,0 0,120 -160,0 z m 280,60 160,0 0,160 -160,0 z m 0,320 160,0 0,160 -160,0 z"
       id="path8417"
       inkscape:connector-curvature="0"
       style="fill:#ffffff;stroke:#000000;stroke-width:2" />
    <path
       d="M 201.9,162.9 362.24,87.84"
       id="path8419"
       inkscape:connector-curvature="0"
       style="fill:none;stroke:#000000;stroke-width:2" />
    <path
       d="m 202.35,163.8 -1.35,0.64 0,-2.2 0.5,-0.25 z"
       id="path8421"
       inkscape:connector-curvature="0" />
    <path
       d="m 376.07,81.37 -10.97,10.25 -3.92,-8.4 z"
       id="path8423"
       inkscape:connector-curvature="0"
       style="stroke:#000000;stroke-width:2" />
    <path
       d="M 201.8,425.27 364.27,548.8"
       id="path8425"
       inkscape:connector-curvature="0"
       style="fill:none;stroke:#000000;stroke-width:2" />
    <path
       d="m 202.42,424.5 -1.2,1.58 -0.22,-0.16 0,-2.5 z"
       id="path8427"
       inkscape:connector-curvature="0" />
    <path
       d="m 376.42,558.04 -14.16,-4.94 5.6,-7.38 z"
       id="path8429"
       inkscape:connector-curvature="0"
       style="stroke:#000000;stroke-width:2" />
    <path
       d="M 202,256.57 360.58,241.72"
       id="path8431"
       inkscape:connector-curvature="0"
       style="fill:none;stroke:#000000;stroke-width:2" />
    <path
       d="m 202.1,257.57 -1.1,0.1 0,-2 0.93,-0.1 z"
       id="path8433"
       inkscape:connector-curvature="0" />
    <path
       d="m 375.78,240.3 -13.78,5.95 -0.86,-9.23 z"
       id="path8435"
       inkscape:connector-curvature="0"
       style="stroke:#000000;stroke-width:2" />
    <path
       d="m 201.96,346.3 159.33,48.33"
       id="path8437"
       inkscape:connector-curvature="0"
       style="fill:none;stroke:#000000;stroke-width:2" />
    <path
       d="m 202.27,345.34 -0.58,1.9 -0.7,-0.2 0,-2.1 z"
       id="path8439"
       inkscape:connector-curvature="0" />
    <path
       d="m 375.9,399.06 -15,0.3 2.7,-8.88 z"
       id="path8441"
       inkscape:connector-curvature="0"
       style="stroke:#000000;stroke-width:2" />
    <path
       d="m 42.33,134 98,0 m -97.97,0 -1.03,0 m 98.97,0 1.03,0 m -99,86 56,0 m -55.97,0 -1.03,0 m 56.97,0 1.03,0 m -57,40 98,0 m -97.97,0 -1.03,0 m 98.97,0 1.03,0 m -99,40 28,0 m -27.97,0 -1.03,0 m 28.97,0 1.03,0 m -29,40 41.34,0 m -41.31,0 -1.03,0 m 42.31,0 1.03,0 m -42.34,40 25.34,0 m -25.31,0 -1.03,0 m 26.31,0 1.03,0 m -26.34,40 98,0 m -97.97,0 -1.03,0 m 98.97,0 1.03,0 m -99,40 134.67,0 m -134.64,0 -1.03,0 m 135.64,0 1.03,0 M 42.33,175.33 l 132,0 m -131.97,0 -1.03,0 m 132.97,0 1.03,0 m 220.34,-126.66 36,0 m -35.97,0 -1.03,0 m 36.97,0 1.03,0 m -37,31.33 98,0 m -97.97,0 -1.03,0 m 98.97,0 1.03,0 m -97.42,28.5 124.63,0 m -124.6,0 -1.03,0 m 125.6,0 1.02,0"
       id="path8443"
       inkscape:connector-curvature="0"
       style="fill:none;stroke:#000000;stroke-width:2" />
    <path
       d="m 380,180 160,0 0,120 -160,0 z"
       id="path8445"
       inkscape:connector-curvature="0"
       style="fill:#ffffff;stroke:#000000;stroke-width:2" />
    <path
       d="m 395.67,208.67 36,0 m -35.97,0 -1.03,0 m 36.97,0 1.03,0 m -37,31.33 98,0 m -97.97,0 -1.03,0 m 98.97,0 1.03,0 m -97.42,28.5 124.63,0 m -124.6,0 -1.03,0 m 125.6,0 1.02,0"
       id="path8447"
       inkscape:connector-curvature="0"
       style="fill:none;stroke:#000000;stroke-width:2" />
    <path
       d="m 380,340 160,0 0,120 -160,0 z"
       id="path8449"
       inkscape:connector-curvature="0"
       style="fill:#ffffff;stroke:#000000;stroke-width:2" />
    <path
       d="m 395.67,368.67 36,0 m -35.97,0 -1.03,0 m 36.97,0 1.03,0 m -37,31.33 98,0 m -97.97,0 -1.03,0 m 98.97,0 1.03,0 m -97.42,28.5 124.63,0 m -124.6,0 -1.03,0 m 125.6,0 1.02,0"
       id="path8451"
       inkscape:connector-curvature="0"
       style="fill:none;stroke:#000000;stroke-width:2" />
    <path
       d="m 380,500 160,0 0,120 -160,0 z"
       id="path8453"
       inkscape:connector-curvature="0"
       style="fill:#ffffff;stroke:#000000;stroke-width:2" />
    <path
       d="m 395.67,528.67 36,0 m -35.97,0 -1.03,0 m 36.97,0 1.03,0 m -37,31.33 98,0 m -97.97,0 -1.03,0 m 98.97,0 1.03,0 m -97.42,28.5 124.63,0 m -124.6,0 -1.03,0 m 125.6,0 1.02,0"
       id="path8455"
       inkscape:connector-curvature="0"
       style="fill:none;stroke:#000000;stroke-width:2" />
    <path
       d="m 960,100 180,0 0,400 -180,0 z"
       id="path8457"
       inkscape:connector-curvature="0"
       style="fill:#ffffff;stroke:#000000;stroke-width:2" />
    <path
       d="m 982.33,134 23.17,0 m -23.14,0 -1.03,0 m 24.14,0 1.03,0 m -24.17,86 56,0 m -55.97,0 -1.03,0 m 56.97,0 1.03,0 m -57,40 76.17,0 m -76.14,0 -1.03,0 m 77.14,0 1.03,0 m -77.17,40 94.17,0 m -94.14,0 -1.03,0 m 95.14,0 1.03,0 m -95.17,39.98 116.17,-2.46 m -116.14,2.46 -1.03,0.02 m 117.14,-2.48 1.03,-0.02 m -117.17,42.5 127.17,0 m -127.14,0 -1.03,0 m 128.14,0 1.03,0 m -128.17,40 128.17,0 m -128.14,0 -1.03,0 m 129.14,0 1.03,0 m -129.17,40 134.67,0 m -134.64,0 -1.03,0 m 135.64,0 1.03,0 m -135.67,-284.67 31.17,0 m -31.14,0 -1.03,0 m 32.14,0 1.03,0 M 395.67,48.67 l 36,0 m -35.97,0 -1.03,0 m 36.97,0 1.03,0 m -37,31.33 98,0 m -97.97,0 -1.03,0 m 98.97,0 1.03,0 m -97.42,28.5 124.63,0 m -124.6,0 -1.03,0 m 125.6,0 1.02,0 M 687,117 l 36,0 m -35.97,0 -1.03,0 m 36.97,0 1.03,0 m -37,30 65.5,0 m -65.47,0 -1.03,0 m 66.47,0 1.03,0 m -66.5,30 86.5,0 m -86.47,0 -1.03,0 m 87.47,0 1.03,0 m -87.5,30 98,0 m -97.97,0 -1.03,0 m 98.97,0 1.03,0 m -93,229 36,0 m -35.97,0 -1.03,0 m 36.97,0 1.03,0 m -37,30 65.5,0 m -65.47,0 -1.03,0 m 66.47,0 1.03,0 m -66.5,30 86.5,0 m -86.47,0 -1.03,0 m 87.47,0 1.03,0 m -87.5,30 98,0 m -97.97,0 -1.03,0 m 98.97,0 1.03,0 M 540.83,80.55 644.61,149.75 M 540.85,80.57 540,80"
       id="path8459"
       inkscape:connector-curvature="0"
       style="fill:none;stroke:#000000;stroke-width:2" />
    <path
       d="m 657.3,158.2 -14.43,-4.05 5.14,-7.72 z"
       id="path8461"
       inkscape:connector-curvature="0"
       style="stroke:#000000;stroke-width:2" />
    <path
       d="M 540.83,239.44 643.65,170.32 M 540.85,239.43 540,240"
       id="path8463"
       inkscape:connector-curvature="0"
       style="fill:none;stroke:#000000;stroke-width:2" />
    <path
       d="m 656.3,161.8 -9.24,11.8 -5.17,-7.68 z"
       id="path8465"
       inkscape:connector-curvature="0"
       style="stroke:#000000;stroke-width:2" />
    <path
       d="M 540.83,559.44 643.65,490.32 M 540.85,559.43 540,560"
       id="path8467"
       inkscape:connector-curvature="0"
       style="fill:none;stroke:#000000;stroke-width:2" />
    <path
       d="m 656.3,481.8 -9.24,11.8 -5.17,-7.68 z"
       id="path8469"
       inkscape:connector-curvature="0"
       style="stroke:#000000;stroke-width:2" />
    <path
       d="m 540.83,400.55 103.78,69.2 M 540.85,400.57 540,400"
       id="path8471"
       inkscape:connector-curvature="0"
       style="fill:none;stroke:#000000;stroke-width:2" />
    <path
       d="m 657.3,478.2 -14.43,-4.05 5.14,-7.72 z"
       id="path8473"
       inkscape:connector-curvature="0"
       style="stroke:#000000;stroke-width:2" />
    <path
       d="M 821.6,479.2 947.75,314.7"
       id="path8475"
       inkscape:connector-curvature="0"
       style="fill:none;stroke:#000000;stroke-width:2" />
    <path
       d="m 822.42,479.8 -1.42,1.84 0,-2.93 z"
       id="path8477"
       inkscape:connector-curvature="0" />
    <path
       d="m 957.03,302.57 -5,14.14 -7.36,-5.63 z"
       id="path8479"
       inkscape:connector-curvature="0"
       style="stroke:#000000;stroke-width:2" />
    <path
       d="M 821.7,160.7 946,286.83"
       id="path8481"
       inkscape:connector-curvature="0"
       style="fill:none;stroke:#000000;stroke-width:2" />
    <path
       d="m 822.43,160.03 -1.42,1.4 0,-2.85 z"
       id="path8483"
       inkscape:connector-curvature="0" />
    <path
       d="m 956.73,297.7 -13.32,-6.9 6.6,-6.52 z"
       id="path8485"
       inkscape:connector-curvature="0"
       style="stroke:#000000;stroke-width:2" />
  </g>
  <text
     xml:space="preserve"
     style="font-style:normal;font-weight:normal;font-size:14.47476864px;line-height:125%;font-family:sans-serif;letter-spacing:0px;word-spacing:0px;fill:#000000;fill-opacity:1;stroke:none;stroke-width:1px;stroke-linecap:butt;stroke-linejoin:miter;stroke-opacity:1"
     x="177.41779"
     y="143.9549"
     id="text12965"
     sodipodi:linespacing="125%"><tspan
       sodipodi:role="line"
       id="tspan12967"
       x="177.41779"
       y="143.9549"
       style="font-size:18.09346008px">Unsorted file</tspan></text>
  <text
     xml:space="preserve"
     style="font-style:normal;font-weight:normal;font-size:14.47476864px;line-height:125%;font-family:sans-serif;letter-spacing:0px;word-spacing:0px;fill:#000000;fill-opacity:1;stroke:none;stroke-width:1px;stroke-linecap:butt;stroke-linejoin:miter;stroke-opacity:1"
     x="428.2489"
     y="98.480713"
     id="text12969"
     sodipodi:linespacing="125%"><tspan
       sodipodi:role="line"
       id="tspan12971"
       x="428.2489"
       y="98.480713"
       style="font-size:18.09346008px">Sorted splits</tspan></text>
  <text
     xml:space="preserve"
     style="font-style:normal;font-weight:normal;font-size:18.09346008px;line-height:125%;font-family:sans-serif;letter-spacing:0px;word-spacing:0px;fill:#000000;fill-opacity:1;stroke:none;stroke-width:1px;stroke-linecap:butt;stroke-linejoin:miter;stroke-opacity:1"
     x="654.02148"
     y="131.4931"
     id="text12973"
     sodipodi:linespacing="125%"><tspan
       sodipodi:role="line"
       id="tspan12975"
       x="654.02148"
       y="131.4931">Merged</tspan></text>
  <text
     xml:space="preserve"
     style="font-style:normal;font-weight:normal;font-size:14.47476864px;line-height:125%;font-family:sans-serif;letter-spacing:0px;word-spacing:0px;fill:#000000;fill-opacity:1;stroke:none;stroke-width:1px;stroke-linecap:butt;stroke-linejoin:miter;stroke-opacity:1"
     x="862.05798"
     y="145.02966"
     id="text12977"
     sodipodi:linespacing="125%"><tspan
       sodipodi:role="line"
       id="tspan12979"
       x="862.05798"
       y="145.02966"
       style="font-size:18.09346008px">Sorted file</tspan></text>
  <text
     xml:space="preserve"
     style="font-style:normal;font-weight:normal;font-size:28.94953728px;line-height:125%;font-family:sans-serif;letter-spacing:0px;word-spacing:0px;fill:#000000;fill-opacity:1;stroke:none;stroke-width:1px;stroke-linecap:butt;stroke-linejoin:miter;stroke-opacity:1"
     x="332.69299"
     y="181.33862"
     id="text12981"
     sodipodi:linespacing="125%"><tspan
       sodipodi:role="line"
       id="tspan12983"
       x="332.69299"
       y="181.33862"
       style="font-size:14.47476864px">split</tspan></text>
  <text
     xml:space="preserve"
     style="font-style:normal;font-weight:normal;font-size:14.47476864px;line-height:125%;font-family:sans-serif;letter-spacing:0px;word-spacing:0px;fill:#000000;fill-opacity:1;stroke:none;stroke-width:1px;stroke-linecap:butt;stroke-linejoin:miter;stroke-opacity:1"
     x="332.69299"
     y="270.17291"
     id="text12985"
     sodipodi:linespacing="125%"><tspan
       sodipodi:role="line"
       id="tspan12987"
       x="332.69299"
       y="270.17291">split</tspan></text>
  <text
     xml:space="preserve"
     style="font-style:normal;font-weight:normal;font-size:28.94953728px;line-height:125%;font-family:sans-serif;letter-spacing:0px;word-spacing:0px;fill:#000000;fill-opacity:1;stroke:none;stroke-width:1px;stroke-linecap:butt;stroke-linejoin:miter;stroke-opacity:1"
     x="332.69299"
     y="358.19214"
     id="text12981-3"
     sodipodi:linespacing="125%"><tspan
       sodipodi:role="line"
       id="tspan12983-6"
       x="332.69299"
       y="358.19214"
       style="font-size:14.47476864px">split</tspan></text>
  <text
     xml:space="preserve"
     style="font-style:normal;font-weight:normal;font-size:28.94953728px;line-height:125%;font-family:sans-serif;letter-spacing:0px;word-spacing:0px;fill:#000000;fill-opacity:1;stroke:none;stroke-width:1px;stroke-linecap:butt;stroke-linejoin:miter;stroke-opacity:1"
     x="332.69299"
     y="434.90839"
     id="text12981-7"
     sodipodi:linespacing="125%"><tspan
       sodipodi:role="line"
       id="tspan12983-5"
       x="332.69299"
       y="434.90839"
       style="font-size:14.47476864px">split</tspan></text>
  <text
     xml:space="preserve"
     style="font-style:normal;font-weight:normal;font-size:14.47476864px;line-height:125%;font-family:sans-serif;letter-spacing:0px;word-spacing:0px;fill:#000000;fill-opacity:1;stroke:none;stroke-width:1px;stroke-linecap:butt;stroke-linejoin:miter;stroke-opacity:1"
     x="554.73199"
     y="223.11469"
     id="text13015"
     sodipodi:linespacing="125%"><tspan
       sodipodi:role="line"
       id="tspan13017"
       x="554.73199"
       y="223.11469">merge</tspan></text>
  <text
     xml:space="preserve"
     style="font-style:normal;font-weight:normal;font-size:14.47476864px;line-height:125%;font-family:sans-serif;letter-spacing:0px;word-spacing:0px;fill:#000000;fill-opacity:1;stroke:none;stroke-width:1px;stroke-linecap:butt;stroke-linejoin:miter;stroke-opacity:1"
     x="555.68103"
     y="458.27399"
     id="text13015-6"
     sodipodi:linespacing="125%"><tspan
       sodipodi:role="line"
       id="tspan13017-2"
       x="555.68103"
       y="458.27399">merge</tspan></text>
  <text
     xml:space="preserve"
     style="font-style:normal;font-weight:normal;font-size:14.47476864px;line-height:125%;font-family:sans-serif;letter-spacing:0px;word-spacing:0px;fill:#000000;fill-opacity:1;stroke:none;stroke-width:1px;stroke-linecap:butt;stroke-linejoin:miter;stroke-opacity:1"
     x="771.34857"
     y="332.16852"
     id="text13015-9"
     sodipodi:linespacing="125%"><tspan
       sodipodi:role="line"
       id="tspan13017-1"
       x="771.34857"
       y="332.16852">merge</tspan></text>
</svg>
